<svg width="143" height="50" viewBox="0 0 143 50" fill="none" xmlns="http://www.w3.org/2000/svg">
<g filter="url(#filter0_ddd_340_223)">
<rect x="5" y="3" width="133" height="40" rx="6" fill="#1458DD"/>
<g clip-path="url(#clip0_340_223)">
<path fill-rule="evenodd" clip-rule="evenodd" d="M34.5 18C34.7652 18 35.0196 18.1054 35.2071 18.2929C35.3946 18.4804 35.5 18.7348 35.5 19V22H38.5C38.7652 22 39.0196 22.1054 39.2071 22.2929C39.3946 22.4804 39.5 22.7348 39.5 23C39.5 23.2652 39.3946 23.5196 39.2071 23.7071C39.0196 23.8946 38.7652 24 38.5 24H35.5V27C35.5 27.2652 35.3946 27.5196 35.2071 27.7071C35.0196 27.8946 34.7652 28 34.5 28C34.2348 28 33.9804 27.8946 33.7929 27.7071C33.6054 27.5196 33.5 27.2652 33.5 27V24H30.5C30.2348 24 29.9804 23.8946 29.7929 23.7071C29.6054 23.5196 29.5 23.2652 29.5 23C29.5 22.7348 29.6054 22.4804 29.7929 22.2929C29.9804 22.1054 30.2348 22 30.5 22H33.5V19C33.5 18.7348 33.6054 18.4804 33.7929 18.2929C33.9804 18.1054 34.2348 18 34.5 18Z" fill="white"/>
<path d="M56.8714 17.8182V28H55.2308L50.4332 21.0646H50.3487V28H48.5043V17.8182H50.1548L54.9474 24.7585H55.0369V17.8182H56.8714ZM62.0984 28.1491C61.3327 28.1491 60.6715 27.9901 60.1147 27.6719C59.5612 27.3504 59.1353 26.8963 58.837 26.3097C58.5387 25.7197 58.3895 25.0253 58.3895 24.2266C58.3895 23.4411 58.5387 22.7517 58.837 22.1584C59.1386 21.5618 59.5595 21.0978 60.0998 20.7663C60.64 20.4316 61.2747 20.2642 62.0039 20.2642C62.4745 20.2642 62.9187 20.3404 63.3363 20.4929C63.7572 20.642 64.1284 20.8741 64.4499 21.1889C64.7747 21.5038 65.0299 21.9048 65.2155 22.392C65.4011 22.8759 65.4939 23.4527 65.4939 24.1222V24.674H59.2347V23.4609H63.7688C63.7655 23.1162 63.6909 22.8097 63.5451 22.5412C63.3993 22.2694 63.1954 22.0556 62.9336 21.8999C62.6751 21.7441 62.3734 21.6662 62.0287 21.6662C61.6609 21.6662 61.3377 21.7557 61.0593 21.9347C60.7809 22.1103 60.5638 22.3423 60.408 22.6307C60.2555 22.9157 60.1777 23.2289 60.1743 23.5703V24.6293C60.1743 25.0734 60.2555 25.4545 60.418 25.7727C60.5804 26.0876 60.8074 26.3295 61.0991 26.4986C61.3907 26.6643 61.7321 26.7472 62.1232 26.7472C62.385 26.7472 62.622 26.7107 62.8341 26.6378C63.0463 26.5616 63.2302 26.4505 63.386 26.3047C63.5418 26.1589 63.6594 25.9782 63.739 25.7628L65.4194 25.9517C65.3133 26.3958 65.1111 26.7836 64.8128 27.1151C64.5179 27.4432 64.14 27.6984 63.6793 27.8807C63.2186 28.0597 62.6916 28.1491 62.0984 28.1491ZM68.4675 28L66.3098 20.3636H68.1443L69.4867 25.733H69.5563L70.9284 20.3636H72.743L74.1152 25.7031H74.1898L75.5122 20.3636H77.3517L75.1891 28H73.3148L71.883 22.8395H71.7786L70.3467 28H68.4675ZM81.545 19.3643V17.8182H89.6686V19.3643H86.5216V28H84.6921V19.3643H81.545ZM92.2295 28.1541C91.7456 28.1541 91.3098 28.0679 90.922 27.8956C90.5375 27.7199 90.2326 27.4614 90.0072 27.12C89.7851 26.7786 89.6741 26.3577 89.6741 25.8572C89.6741 25.4264 89.7537 25.0701 89.9127 24.7884C90.0718 24.5066 90.2889 24.2812 90.564 24.1122C90.8391 23.9432 91.149 23.8156 91.4937 23.7294C91.8417 23.6399 92.2013 23.5753 92.5725 23.5355C93.02 23.4891 93.3829 23.4477 93.6613 23.4112C93.9397 23.3714 94.1419 23.3118 94.2679 23.2322C94.3971 23.1494 94.4617 23.0218 94.4617 22.8494V22.8196C94.4617 22.4451 94.3507 22.1551 94.1287 21.9496C93.9066 21.7441 93.5867 21.6413 93.1691 21.6413C92.7283 21.6413 92.3787 21.7375 92.1201 21.9297C91.8649 22.1219 91.6926 22.349 91.6031 22.6108L89.9227 22.3722C90.0553 21.9081 90.274 21.5204 90.5789 21.2088C90.8839 20.8939 91.2567 20.6586 91.6975 20.5028C92.1384 20.3438 92.6256 20.2642 93.1592 20.2642C93.5271 20.2642 93.8933 20.3073 94.2579 20.3935C94.6225 20.4796 94.9556 20.6222 95.2572 20.821C95.5588 21.0166 95.8008 21.2834 95.9831 21.6214C96.1687 21.9595 96.2615 22.3821 96.2615 22.8892V28H94.5314V26.951H94.4717C94.3623 27.1631 94.2082 27.362 94.0093 27.5476C93.8138 27.7299 93.5669 27.8774 93.2686 27.9901C92.9736 28.0994 92.6272 28.1541 92.2295 28.1541ZM92.6968 26.8317C93.0581 26.8317 93.3713 26.7604 93.6365 26.6179C93.9016 26.4721 94.1055 26.2798 94.248 26.0412C94.3938 25.8026 94.4667 25.5424 94.4667 25.2607V24.3608C94.4104 24.4072 94.3143 24.4503 94.1784 24.4901C94.0458 24.5298 93.8966 24.5646 93.7309 24.5945C93.5652 24.6243 93.4011 24.6508 93.2387 24.674C93.0763 24.6972 92.9355 24.7171 92.8162 24.7337C92.5477 24.7701 92.3074 24.8298 92.0953 24.9126C91.8832 24.9955 91.7158 25.1115 91.5931 25.2607C91.4705 25.4065 91.4092 25.5954 91.4092 25.8274C91.4092 26.1589 91.5302 26.4091 91.7721 26.5781C92.0141 26.7472 92.3223 26.8317 92.6968 26.8317ZM104.023 22.3821L102.382 22.5611C102.336 22.3954 102.254 22.2396 102.138 22.0938C102.026 21.9479 101.873 21.8303 101.681 21.7408C101.489 21.6513 101.253 21.6065 100.975 21.6065C100.601 21.6065 100.286 21.6877 100.03 21.8501C99.7786 22.0125 99.6543 22.223 99.6576 22.4815C99.6543 22.7036 99.7355 22.8842 99.9012 23.0234C100.07 23.1626 100.349 23.277 100.736 23.3665L102.039 23.6449C102.762 23.8007 103.298 24.0476 103.65 24.3857C104.004 24.7237 104.183 25.1662 104.187 25.7131C104.183 26.1937 104.043 26.6179 103.764 26.9858C103.489 27.3504 103.106 27.6354 102.616 27.8409C102.125 28.0464 101.562 28.1491 100.925 28.1491C99.9907 28.1491 99.2383 27.9536 98.6682 27.5625C98.0982 27.1681 97.7584 26.6196 97.6491 25.9169L99.404 25.7479C99.4836 26.0926 99.6526 26.3527 99.9111 26.5284C100.17 26.7041 100.506 26.7919 100.92 26.7919C101.348 26.7919 101.691 26.7041 101.949 26.5284C102.211 26.3527 102.342 26.1357 102.342 25.8771C102.342 25.6584 102.258 25.4777 102.089 25.3352C101.923 25.1927 101.664 25.0833 101.313 25.0071L100.011 24.7337C99.2781 24.5812 98.7362 24.3243 98.3848 23.9631C98.0335 23.5985 97.8595 23.1378 97.8628 22.581C97.8595 22.1103 97.9871 21.7027 98.2456 21.358C98.5075 21.0099 98.8704 20.7415 99.3344 20.5526C99.8018 20.3603 100.34 20.2642 100.95 20.2642C101.845 20.2642 102.549 20.4548 103.063 20.8359C103.58 21.2171 103.9 21.7325 104.023 22.3821ZM107.227 25.6037L107.222 23.4311H107.511L110.255 20.3636H112.358L108.982 24.1222H108.609L107.227 25.6037ZM105.587 28V17.8182H107.386V28H105.587ZM110.379 28L107.894 24.5249L109.107 23.2571L112.532 28H110.379Z" fill="#F6F8F9"/>
</g>
</g>
<defs>
<filter id="filter0_ddd_340_223" x="0" y="0" width="143" height="50" filterUnits="userSpaceOnUse" color-interpolation-filters="sRGB">
<feFlood flood-opacity="0" result="BackgroundImageFix"/>
<feColorMatrix in="SourceAlpha" type="matrix" values="0 0 0 0 0 0 0 0 0 0 0 0 0 0 0 0 0 0 127 0" result="hardAlpha"/>
<feOffset dy="1"/>
<feGaussianBlur stdDeviation="0.5"/>
<feColorMatrix type="matrix" values="0 0 0 0 0 0 0 0 0 0 0 0 0 0 0 0 0 0 0.06 0"/>
<feBlend mode="normal" in2="BackgroundImageFix" result="effect1_dropShadow_340_223"/>
<feColorMatrix in="SourceAlpha" type="matrix" values="0 0 0 0 0 0 0 0 0 0 0 0 0 0 0 0 0 0 127 0" result="hardAlpha"/>
<feMorphology radius="1" operator="dilate" in="SourceAlpha" result="effect2_dropShadow_340_223"/>
<feOffset/>
<feColorMatrix type="matrix" values="0 0 0 0 0.235294 0 0 0 0 0.258824 0 0 0 0 0.341176 0 0 0 0.08 0"/>
<feBlend mode="normal" in2="effect1_dropShadow_340_223" result="effect2_dropShadow_340_223"/>
<feColorMatrix in="SourceAlpha" type="matrix" values="0 0 0 0 0 0 0 0 0 0 0 0 0 0 0 0 0 0 127 0" result="hardAlpha"/>
<feOffset dy="2"/>
<feGaussianBlur stdDeviation="2.5"/>
<feColorMatrix type="matrix" values="0 0 0 0 0.235294 0 0 0 0 0.258824 0 0 0 0 0.341176 0 0 0 0.04 0"/>
<feBlend mode="normal" in2="effect2_dropShadow_340_223" result="effect3_dropShadow_340_223"/>
<feBlend mode="normal" in="SourceGraphic" in2="effect3_dropShadow_340_223" result="shape"/>
</filter>
<clipPath id="clip0_340_223">
<rect width="84" height="24" fill="white" transform="translate(29.5 11)"/>
</clipPath>
</defs>
</svg>
