<svg width="44" height="44" viewBox="0 0 44 44" fill="none" xmlns="http://www.w3.org/2000/svg">
<g filter="url(#filter0_d_340_220)">
<rect x="2" y="1" width="40" height="40" rx="6" fill="white"/>
<rect x="2.5" y="1.5" width="39" height="39" rx="5.5" stroke="#D0D5DD"/>
<path d="M18 21C18 21.5304 17.7893 22.0391 17.4142 22.4142C17.0391 22.7893 16.5304 23 16 23C15.4696 23 14.9609 22.7893 14.5858 22.4142C14.2107 22.0391 14 21.5304 14 21C14 20.4696 14.2107 19.9609 14.5858 19.5858C14.9609 19.2107 15.4696 19 16 19C16.5304 19 17.0391 19.2107 17.4142 19.5858C17.7893 19.9609 18 20.4696 18 21ZM24 21C24 21.5304 23.7893 22.0391 23.4142 22.4142C23.0391 22.7893 22.5304 23 22 23C21.4696 23 20.9609 22.7893 20.5858 22.4142C20.2107 22.0391 20 21.5304 20 21C20 20.4696 20.2107 19.9609 20.5858 19.5858C20.9609 19.2107 21.4696 19 22 19C22.5304 19 23.0391 19.2107 23.4142 19.5858C23.7893 19.9609 24 20.4696 24 21ZM28 23C28.5304 23 29.0391 22.7893 29.4142 22.4142C29.7893 22.0391 30 21.5304 30 21C30 20.4696 29.7893 19.9609 29.4142 19.5858C29.0391 19.2107 28.5304 19 28 19C27.4696 19 26.9609 19.2107 26.5858 19.5858C26.2107 19.9609 26 20.4696 26 21C26 21.5304 26.2107 22.0391 26.5858 22.4142C26.9609 22.7893 27.4696 23 28 23Z" fill="#5B6871"/>
</g>
<defs>
<filter id="filter0_d_340_220" x="0" y="0" width="44" height="44" filterUnits="userSpaceOnUse" color-interpolation-filters="sRGB">
<feFlood flood-opacity="0" result="BackgroundImageFix"/>
<feColorMatrix in="SourceAlpha" type="matrix" values="0 0 0 0 0 0 0 0 0 0 0 0 0 0 0 0 0 0 127 0" result="hardAlpha"/>
<feOffset dy="1"/>
<feGaussianBlur stdDeviation="1"/>
<feComposite in2="hardAlpha" operator="out"/>
<feColorMatrix type="matrix" values="0 0 0 0 0.0627451 0 0 0 0 0.0941176 0 0 0 0 0.156863 0 0 0 0.05 0"/>
<feBlend mode="normal" in2="BackgroundImageFix" result="effect1_dropShadow_340_220"/>
<feBlend mode="normal" in="SourceGraphic" in2="effect1_dropShadow_340_220" result="shape"/>
</filter>
</defs>
</svg>
