<svg width="44" height="44" viewBox="0 0 44 44" fill="none" xmlns="http://www.w3.org/2000/svg">
<g filter="url(#filter0_d_340_216)">
<rect x="2" y="1" width="40" height="40" rx="6" fill="white"/>
<rect x="2.5" y="1.5" width="39" height="39" rx="5.5" stroke="#D0D5DD"/>
<path fill-rule="evenodd" clip-rule="evenodd" d="M28.197 20.017C27.967 20.017 26.59 20.017 26.017 19.322C26.017 19.207 25.902 19.207 25.902 19.091C25.787 18.281 26.82 17.24 26.934 17.124C27.164 16.893 27.164 16.545 27.049 16.43C26.934 16.314 26.475 15.851 26.361 15.62C26.246 15.388 25.901 15.504 25.672 15.736C25.442 15.966 24.525 16.893 23.722 16.776C23.607 16.776 23.607 16.661 23.492 16.661C22.803 16.198 22.803 14.81 22.803 14.579C22.803 14.231 22.689 14 22.459 14H21.311C21.082 14 20.967 14.231 20.967 14.579C20.967 14.809 20.967 16.199 20.279 16.777C20.164 16.777 20.164 16.893 20.049 16.893C19.246 16.893 18.328 15.967 18.099 15.736C17.869 15.504 17.525 15.504 17.409 15.62C17.295 15.851 16.836 16.314 16.607 16.43C16.492 16.545 16.492 16.893 16.721 17.124C16.951 17.355 17.869 18.281 17.754 19.091C17.754 19.207 17.639 19.207 17.639 19.322C17.18 20.017 15.803 20.017 15.574 20.017C15.23 20.017 15 20.132 15 20.364V21.405C15 21.636 15.23 21.868 15.574 21.868C15.804 21.868 17.18 21.868 17.754 22.562C17.754 22.678 17.869 22.678 17.869 22.793C17.984 23.603 16.951 24.645 16.836 24.76C16.606 24.992 16.606 25.339 16.721 25.455C16.836 25.57 17.295 26.033 17.41 26.265C17.525 26.38 17.869 26.38 18.098 26.149C18.328 25.917 19.246 24.992 20.049 25.107C20.164 25.107 20.164 25.223 20.279 25.223C20.967 25.802 20.967 27.074 20.967 27.421C20.967 27.653 21.197 28 21.427 28H22.459C22.689 28 22.918 27.769 22.918 27.421C22.918 27.191 22.918 25.801 23.607 25.223C23.721 25.223 23.721 25.107 23.837 25.107C24.639 24.992 25.672 26.033 25.787 26.149C26.017 26.38 26.361 26.38 26.475 26.264L27.279 25.454C27.393 25.339 27.393 24.992 27.164 24.76C26.934 24.529 26.016 23.603 26.131 22.793C26.131 22.678 26.246 22.678 26.246 22.562C26.82 21.868 28.082 21.868 28.426 21.868C28.656 21.868 29 21.636 29 21.405V20.364C28.77 20.132 28.541 20.017 28.197 20.017ZM21.885 23.487C20.508 23.487 19.361 22.331 19.361 20.942C19.361 19.554 20.508 18.397 21.885 18.397C23.262 18.397 24.41 19.554 24.41 20.942C24.41 22.331 23.262 23.488 21.885 23.488V23.487Z" fill="#5B6871"/>
</g>
<defs>
<filter id="filter0_d_340_216" x="0" y="0" width="44" height="44" filterUnits="userSpaceOnUse" color-interpolation-filters="sRGB">
<feFlood flood-opacity="0" result="BackgroundImageFix"/>
<feColorMatrix in="SourceAlpha" type="matrix" values="0 0 0 0 0 0 0 0 0 0 0 0 0 0 0 0 0 0 127 0" result="hardAlpha"/>
<feOffset dy="1"/>
<feGaussianBlur stdDeviation="1"/>
<feColorMatrix type="matrix" values="0 0 0 0 0.0627451 0 0 0 0 0.0941176 0 0 0 0 0.156863 0 0 0 0.05 0"/>
<feBlend mode="normal" in2="BackgroundImageFix" result="effect1_dropShadow_340_216"/>
<feBlend mode="normal" in="SourceGraphic" in2="effect1_dropShadow_340_216" result="shape"/>
</filter>
</defs>
</svg>
